<?xml version="1.0" encoding="utf-8"?>
<!-- Generator: Adobe Illustrator 22.0.1, SVG Export Plug-In . SVG Version: 6.00 Build 0)  -->
<svg version="1.1" baseProfile="tiny" id="Layer_1" xmlns="http://www.w3.org/2000/svg" xmlns:xlink="http://www.w3.org/1999/xlink"
	 x="0px" y="0px" viewBox="0 0 639.6 404.3" xml:space="preserve">
<g>
	<path d="M207.1,344.2c-10.1,0-18-8.2-18-18.5c0-10.4,7.9-18.5,18-18.5c5.1,0,10.4,2.5,14,6.7l5-6.5c-4.9-5-12-8.1-19.2-8.1
		c-14.9,0-26.5,11.5-26.5,26.4c0,15.1,11.5,26.7,26.2,26.7c7.1,0,14.4-3.4,19.5-8.6l-5-5.9C217.3,341.8,212.1,344.2,207.1,344.2z"/>
	<path d="M259.2,299.6l-22.3,52.5h8.9l4.8-11.9h25.4l4.8,11.9h9.1l-22-52.5H259.2z M253.8,332.4l9.5-23.3l9.5,23.3H253.8z"/>
	<polygon points="332.5,334.5 315.8,299.6 305.7,299.6 305.7,352.1 313.7,352.1 313.7,312.9 329.7,346.6 335.2,346.6 351.1,312.9 
		351.2,352.1 359,352.1 359,299.6 349,299.6 	"/>
	<path d="M401.5,299.6h-20.1v52.5h8.5v-15.8h11.6c12.7,0,20-6.9,20-18.8C421.5,306.1,414.2,299.6,401.5,299.6z M401.2,328.3h-11.2
		v-20.8h11.2c7.8,0,12.2,3.3,12.2,10.2C413.3,324.9,409,328.3,401.2,328.3z"/>
	<path d="M473.3,330.3c0,8.9-5.1,14.2-13.3,14.2c-8.3,0-13.5-5.3-13.5-14.2v-30.8H438v30.8c0,13.7,8.4,22.1,22,22.1
		c13.6,0,21.9-8.4,21.9-22.1v-30.8h-8.5V330.3z"/>
	<path d="M510.8,313c0-3.5,3.2-5.5,8.2-5.5c3.8,0,9.3,1.4,14.8,4.9l3.5-7.8c-4.7-3.2-11.1-5.4-17.7-5.4c-11,0-18.4,5.6-18.4,14.6
		c0,18.7,27.2,12.2,27.2,23.9c0,4-3.5,6.4-9.4,6.4c-5.4,0-11.9-2.7-17.1-7.7l-3.7,7.7c5.2,4.9,12.7,8.3,20.6,8.3
		c11.1,0,19-5.8,19-15.2C538,318.3,510.8,324.5,510.8,313z"/>
	<path d="M392.9,266.8c36.5,0,66.2-29.5,66.2-65.9c0-36.4-29.6-65.9-66.2-65.9c-36.6,0-66.2,29.5-66.2,65.9
		C326.7,237.3,356.4,266.8,392.9,266.8z M392.9,166.5c19.1,0,34.7,15.4,34.7,34.5c0,19.1-15.5,34.5-34.7,34.5
		c-19.1,0-34.7-15.4-34.7-34.5C358.2,181.9,373.8,166.5,392.9,166.5z"/>
	<path d="M180.9,266.8h31.5l0-64c0-19.4,15.5-35.2,34.7-35.2c19.1,0,34.7,15.8,34.7,35.2v64h31.5l0-64c0-37.1-29.6-67.2-66.2-67.2
		c-36.5,0-66.2,30.1-66.2,67.2V266.8z"/>
	<path d="M109.5,203.7c0-4.4-0.8-8.6-2.3-12.4l-21.3-55.6H51.9L89.7,234C101.4,229.2,109.5,217.6,109.5,203.7z"/>
	<polygon points="537.9,266.8 588.2,135.6 554.3,135.6 504,266.8 	"/>
	<path d="M511.2,203.6c0-4.4-0.8-8.6-2.3-12.4l-21.3-55.6h-33.9l37.8,98.4C503.1,229.2,511.2,217.5,511.2,203.6z"/>
	<polygon points="152.6,135.6 69.5,352.1 103.4,352.1 186.5,135.6 	"/>
</g>
<g>
	<path d="M61.4,52.5v41.7h21.7v8.7H51.7V52.5H61.4z"/>
	<path d="M112.9,86.4v16.5h-9.6V86.7L84.4,52.5h9.8L108,76.2l13.5-23.7h9.7L112.9,86.4z"/>
	<path d="M185.3,77.6c0,14.6-11.7,26-26.9,26c-15.2,0-26.9-11.4-26.9-26c0-14.7,11.7-25.8,26.9-25.8C173.6,51.8,185.3,63,185.3,77.6
		z M141.5,77.6c0,9.6,7.8,17.3,17.1,17.3c9.2,0,16.8-7.6,16.8-17.3c0-9.6-7.6-17.1-16.8-17.1C149.2,60.5,141.5,67.9,141.5,77.6z"/>
	<path d="M238.3,52.5v50.4h-9.1l-25.9-34.7v34.7h-9.4V52.5h9.1l26,34.8V52.5H238.3z"/>
</g>
</svg>
